# xmcd CD database file
#
# Track frame offsets:
#	150
#	13135
#	25683
#	37937
#	52904
#	66788
#	80074
#	95171
#	109568
#	122741
#
# Disc length: 1802 seconds
#
# Revision: 1
# Processed by: cddbd v1.5.2PL0 Copyright (c) Steve Scherf et al.
# Submitted via: CDex 1.51
#
DISCID=7907080a
DTITLE=Dinah Washington - I Want to Be Loved
DYEAR=2002
DGENRE=Jazz
TTITLE0=All Or Nothing
TTITLE1=Joy Juice
TTITLE2=A Slick Chick
TTITLE3=I Want to be Loved
TTITLE4=Salty Papa Blues
TTITLE5=When a Woman Loves a Man
TTITLE6=Blow Top Blues
TTITLE7=I Know How to do It
TTITLE8=Postman Blues
TTITLE9=I Can't Get Started
EXTD=YEAR: 2002
EXTT0=
EXTT1=
EXTT2=
EXTT3=
EXTT4=
EXTT5=
EXTT6=
EXTT7=
EXTT8=
EXTT9=
PLAYORDER=
